<svg width="37" height="36" viewBox="0 0 37 36" fill="none" xmlns="http://www.w3.org/2000/svg">
<g clip-path="url(#clip0_89_9)">
<path fill-rule="evenodd" clip-rule="evenodd" d="M18.3203 0C8.18963 0 0 8.25 0 18.4564C0 26.6149 5.24738 33.5209 12.5269 35.9651C13.437 36.1489 13.7704 35.568 13.7704 35.0794C13.7704 34.6515 13.7404 33.1849 13.7404 31.6567C8.64413 32.757 7.58288 29.4566 7.58288 29.4566C6.76388 27.3176 5.55038 26.7679 5.55038 26.7679C3.88238 25.6372 5.67188 25.6372 5.67188 25.6372C7.52213 25.7595 8.493 27.5317 8.493 27.5317C10.1306 30.3427 12.7695 29.5485 13.8311 29.0595C13.9826 27.8677 14.4683 27.0427 14.9839 26.5845C10.9193 26.1566 6.64275 24.5677 6.64275 17.4784C6.64275 15.4616 7.37025 13.8116 8.523 12.5284C8.34113 12.0701 7.704 10.1752 8.70525 7.63912C8.70525 7.63912 10.2521 7.15012 13.74 9.53362C15.2333 9.12962 16.7733 8.9241 18.3203 8.92237C19.8671 8.92237 21.444 9.1365 22.9001 9.53362C26.3884 7.15012 27.9353 7.63912 27.9353 7.63912C28.9365 10.1752 28.299 12.0701 28.1171 12.5284C29.3003 13.8116 29.9978 15.4616 29.9978 17.4784C29.9978 24.5677 25.7213 26.1259 21.6263 26.5845C22.2938 27.165 22.8698 28.2649 22.8698 30.0067C22.8698 32.4817 22.8398 34.4681 22.8398 35.079C22.8398 35.568 23.1735 36.1489 24.0833 35.9655C31.3628 33.5205 36.6101 26.6149 36.6101 18.4564C36.6401 8.25 28.4205 0 18.3203 0Z" fill="black"/>
</g>
<defs>
<clipPath id="clip0_89_9">
<rect width="36.75" height="36" fill="white"/>
</clipPath>
</defs>
</svg>
